<svg id="图层_1" xmlns="http://www.w3.org/2000/svg" viewBox="0 0 230.81 230.6">
  <defs>
    <style>.cls-1{fill:"";}</style>
  </defs>
  <title>未标题-1</title>
  <path class="cls-1" d="M393.86,516.45h1.26a10.48,10.48,0,0,0,10.48-9.33,83.86,83.86,0,0,1,55.87-69.71,31.45,31.45,0,1,0-3.46-21A104.83,104.83,0,0,0,384.64,505,10.48,10.48,0,0,0,393.86,516.45Zm95-104.83a10.48,10.48,0,1,1-10.48,10.48h0A10.48,10.48,0,0,1,488.84,411.62Zm28,183.87A84.81,84.81,0,0,1,434.33,580a32.18,32.18,0,0,0,2.1-11.11A31.45,31.45,0,1,0,405,600.31,32.08,32.08,0,0,0,420.7,596a104.83,104.83,0,0,0,103,19.29,10.49,10.49,0,0,0-6.92-19.81ZM405,579.35a10.48,10.48,0,1,1,10.48-10.48A10.48,10.48,0,0,1,405,579.35Zm83.86-104.83a41.93,41.93,0,1,0,41.93,41.93,41.93,41.93,0,0,0-41.93-41.93Zm0,62.9a21,21,0,1,1,21-21h0A21,21,0,0,1,488.84,537.41Zm101.47,5.45a106.72,106.72,0,0,0,3.35-26.42,104.83,104.83,0,0,0-34.91-78.1,10.48,10.48,0,1,0-14,15.2,83.86,83.86,0,0,1,28,62.9,85.22,85.22,0,0,1-2.73,21,31.45,31.45,0,1,0,20.34,5.14ZM572.7,579.35a10.48,10.48,0,1,1,10.48-10.48,10.48,10.48,0,0,1-10.48,10.48Z" transform="translate(-373.53 -390.65)"/>
</svg>
